<?xml version="1.0" encoding="utf-8"?>
<!-- Generator: Adobe Illustrator 21.1.0, SVG Export Plug-In . SVG Version: 6.00 Build 0)  -->
<svg version="1.1" id="Layer_1" xmlns="http://www.w3.org/2000/svg" xmlns:xlink="http://www.w3.org/1999/xlink" x="0px" y="0px"
	 viewBox="0 0 350.3 57" style="enable-background:new 0 0 350.3 57;" xml:space="preserve">
<style type="text/css">
	.st0{fill:#02AAA2;}
	.st1{fill:#1E457F;}
</style>
<path class="st0" d="M275.9,17.4h12v38.4h-12V17.4z"/>
<path class="st0" d="M275.9,17.4h12v38.4h-12V17.4z"/>
<path class="st0" d="M284.3,12.6h-8.4V4.2c0-2.4,1.8-4.2,4.2-4.2h7.8v9C287.9,10.8,286.1,12.6,284.3,12.6z"/>
<path class="st1" d="M15.6,7.8H0V4.2h35.5v3.6H19.8v48h-4.2C15.6,55.8,15.6,7.8,15.6,7.8z"/>
<path class="st1" d="M66.7,39c0,0.6,0,0.6,0,1.8H37.9c0,4.8,4.2,12.6,13.2,12.6c5.4,0,9-3,11.4-6l3,2.4c-3,4.2-8.4,6.6-13.8,6.6
	C41.5,56.4,34.3,48,34.3,39c0-9.6,6.6-17.4,16.8-17.4C59.5,21.6,66.7,28.8,66.7,39z M63.1,37.2c0-3.6-3.6-12-12.6-12
	c-9.6,0-12.6,8.4-12.6,12H63.1z"/>
<path class="st1" d="M76.3,0h3.6v55.8h-3.6V0z"/>
<path class="st1" d="M122,39c0,0.6,0,0.6,0,1.8H93.2c0,4.8,4.2,12.6,13.2,12.6c5.4,0,9-3,11.4-6l2.4,2.4c-3,4.2-8.4,6.6-13.8,6.6
	C96.2,56.4,88.9,48,88.9,39c0-9.6,6.6-17.4,16.8-17.4C114.8,21.6,122,28.8,122,39z M117.8,37.2c0-3.6-3.6-12-12.6-12
	c-9.6,0-12.6,8.4-12.6,12H117.8z"/>
<path class="st1" d="M155.1,55.8h-3.6v-21c0-6.6-3-9.6-8.4-9.6c-6.6,0-9,6.6-9,6.6v24h-3.6V22.2h3.6v5.4c0,0,3-6.6,10.2-6.6
	c4.2,0,8.4,1.8,10.2,6.6c0-0.6,3.6-6.6,10.8-6.6c5.4,0,11.4,3,11.4,12.6v22.2h-3.6v-21c0-6.6-3-9.6-8.4-9.6c-6.6,0-9,6.6-9,6.6v24
	H155.1z"/>
<path class="st1" d="M217,39c0,0.6,0,0.6,0,1.8h-28.8c0,4.8,4.2,12.6,13.2,12.6c5.4,0,9-3,11.4-6l2.4,2.4c-3,4.2-8.4,6.6-13.8,6.6
	C191.2,56.4,184,48,184,39c0-9.6,6.6-17.4,16.8-17.4C209.7,21.6,217,28.8,217,39z M212.8,37.2c0-3.6-3.6-12-12.6-12
	c-9.6,0-12.6,8.4-12.6,12H212.8z"/>
<path class="st1" d="M253,55.8v-6c0,0-4.2,7.2-12.6,7.2c-9.6,0-16.8-7.2-16.8-17.4s7.2-17.4,16.8-17.4c7.2,0,11.4,5.4,12,6.6V1.2
	h3.6V57h-3V55.8z M252.4,33c0,0-3.6-7.8-12-7.8c-7.8,0-12.6,6-12.6,13.8s5.4,13.8,12.6,13.8c8.4,0,12-7.8,12-7.8V33z"/>
<path class="st0" d="M319.7,57c-15,0-27.6-12.6-27.6-28.2s12.6-28.2,27.6-28.2s27.6,12.6,27.6,28.2c0,5.4-1.2,10.8-4.2,15l7.2,6.6
	l-3,3.6c-1.2,1.2-3,2.4-4.8,2.4s-3-0.6-4.2-1.8l-3-2.4C330.6,55.2,325.1,57,319.7,57z M319.7,12c-9,0-15.6,7.8-15.6,16.8
	c0,9.6,7.2,16.8,15.6,16.8c2.4,0,4.2-0.6,6-1.2l-7.8-7.2l3.6-4.2c1.2-1.2,3-1.8,4.2-1.8s3,0.6,3.6,1.2l4.2,3.6
	c1.2-2.4,1.8-4.8,1.8-7.2C335.4,19.2,328.7,12,319.7,12z"/>
</svg>
